<svg width="512" height="512" viewBox="0 0 512 512" fill="none" xmlns="http://www.w3.org/2000/svg">
<rect width="512" height="512" rx="89.0691" fill="#171A21"/>
<path d="M185.536 319.132C174.312 319.132 164.145 316.367 155.036 310.836C146.089 305.305 139.013 297.335 133.808 286.924C128.603 276.351 126 263.907 126 249.592C126 224.867 131.287 202.012 141.86 181.028C152.433 159.881 168.049 142.964 188.708 130.276C209.367 117.425 234.173 111 263.128 111C270.611 111 278.581 111.569 287.04 112.708C295.661 113.847 303.469 115.555 310.464 117.832C315.019 119.133 317.296 122.387 317.296 127.592C317.296 131.821 315.669 135.807 312.416 139.548C309.325 143.289 305.665 145.16 301.436 145.16C300.135 145.16 299.159 145.079 298.508 144.916C290.049 142.964 282.811 141.581 276.792 140.768C270.773 139.792 264.429 139.304 257.76 139.304C237.101 139.304 219.533 144.347 205.056 154.432C190.579 164.355 179.761 177.531 172.604 193.96C165.447 210.389 161.868 228.12 161.868 247.152C161.868 260.979 164.552 271.715 169.92 279.36C175.451 286.843 182.608 290.584 191.392 290.584C201.315 290.584 210.017 286.517 217.5 278.384C224.983 270.251 231.815 257.075 237.996 238.856C244.177 220.637 250.277 195.912 256.296 164.68C257.272 160.125 259.224 157.035 262.152 155.408C265.08 153.781 268.984 152.968 273.864 152.968C285.413 152.968 291.188 156.709 291.188 164.192C291.188 165.493 290.944 167.12 290.456 169.072C286.227 184.851 282.323 202.337 278.744 221.532C275.328 240.564 273.62 255.041 273.62 264.964C273.62 273.748 274.921 280.173 277.524 284.24C280.127 288.144 284.112 290.096 289.48 290.096C294.685 290.096 299.647 288.388 304.364 284.972C309.081 281.393 315.019 275.375 322.176 266.916C324.128 264.639 326.324 263.5 328.764 263.5C330.879 263.5 332.505 264.476 333.644 266.428C334.945 268.38 335.596 271.064 335.596 274.48C335.596 280.824 334.051 285.867 330.96 289.608C322.989 299.205 315.181 306.525 307.536 311.568C299.891 316.611 290.537 319.132 279.476 319.132C268.089 319.132 258.899 315.879 251.904 309.372C244.909 302.703 240.517 293.349 238.728 281.312C226.691 306.525 208.96 319.132 185.536 319.132Z" fill="#FBFBFB"/>
<path d="M346.12 150.04C352.139 150.04 357.019 151.504 360.76 154.432C364.502 157.36 366.372 161.508 366.372 166.876C366.372 173.383 364.258 178.588 360.028 182.492C355.799 186.233 350.187 188.104 343.192 188.104C336.36 188.104 331.236 186.559 327.82 183.468C324.404 180.215 322.696 175.741 322.696 170.048C322.696 164.355 324.892 159.637 329.284 155.896C333.839 151.992 339.451 150.04 346.12 150.04ZM343.192 204.208C348.072 204.208 351.244 204.94 352.708 206.404C354.335 207.868 355.148 209.901 355.148 212.504C355.148 219.499 352.627 239.425 347.584 272.284C346.934 276.188 345.876 283.101 344.412 293.024C338.394 334.667 330.016 367.688 319.28 392.088C308.544 416.651 294.392 428.932 276.824 428.932C268.366 428.932 261.615 426.329 256.572 421.124C251.367 416.081 248.764 409.412 248.764 401.116C248.764 389.567 253.238 377.204 262.184 364.028C271.131 351.015 287.967 334.911 312.692 315.716L314.4 303.272C316.678 287.656 318.467 272.284 319.768 257.156C320.744 248.372 322.29 235.277 324.404 217.872C325.055 213.155 326.844 209.739 329.772 207.624C332.7 205.347 337.174 204.208 343.192 204.208ZM279.508 405.264C283.738 405.264 288.374 400.465 293.416 390.868C298.459 381.271 303.176 365.817 307.568 344.508C295.206 355.081 286.34 364.597 280.972 373.056C275.442 381.677 272.676 389.241 272.676 395.748C272.676 402.092 274.954 405.264 279.508 405.264Z" fill="#FBFBFB"/>
</svg>
